<?xml version="1.0" encoding="UTF-8"?>
<svg width="80" height="80" viewBox="0 0 80 80" fill="none" xmlns="http://www.w3.org/2000/svg">
  <rect width="80" height="80" rx="40" fill="#4C51BF"/>
  <path d="M53.3333 20H26.6667C23.0667 20 20.0333 23.0667 20 26.6667V53.3333C20 56.9333 23.0667 60 26.6667 60H53.3333C56.9333 60 60 56.9333 60 53.3333V26.6667C60 23.0667 56.9333 20 53.3333 20ZM36.6667 46.6667L30 40L36.6667 33.3333L34.1667 30.8333L25 40L34.1667 49.1667L36.6667 46.6667ZM43.3333 46.6667L50 40L43.3333 33.3333L45.8333 30.8333L55 40L45.8333 49.1667L43.3333 46.6667Z" fill="white"/>
</svg>
