<?xml version="1.0" encoding="UTF-8"?>
<svg width="80" height="80" viewBox="0 0 80 80" fill="none" xmlns="http://www.w3.org/2000/svg">
  <rect width="80" height="80" rx="40" fill="#FF6B6B"/>
  <path d="M40 20C29.4 20 20 29.4 20 40C20 50.6 29.4 60 40 60C50.6 60 60 50.6 60 40C60 29.4 50.6 20 40 20ZM44 52H36V48H44V52ZM47.3 39L45.5 40.8C44.1 42.2 43 43.4 43 46H37V44.5C37 42.5 38.1 40.7 39.5 39.3L41.9 36.8C42.6 36.1 43 35.1 43 34C43 31.8 41.2 30 39 30C36.8 30 35 31.8 35 34H29C29 28.5 33.5 24 39 24C44.5 24 49 28.5 49 34C49 36 48.3 37.9 47.3 39Z" fill="white"/>
</svg>
